<mxfile host="app.diagrams.net" modified="2020-10-22T08:54:27.809Z" agent="5.0 (Windows NT 10.0; Win64; x64) AppleWebKit/537.36 (KHTML, like Gecko) Chrome/85.0.4183.83 Safari/537.36" etag="9ygSliVJdI1lzHiC6w4l" version="13.8.0" type="github">
  <diagram id="jl4eCC_rTJXexJW2l3nd" name="Page-1">
    <mxGraphModel dx="1855" dy="2307" grid="1" gridSize="10" guides="1" tooltips="1" connect="1" arrows="1" fold="1" page="1" pageScale="1" pageWidth="827" pageHeight="1169" math="0" shadow="0">
      <root>
        <mxCell id="0" />
        <mxCell id="1" parent="0" />
        <mxCell id="biFw_Mb-a6UOI4AsIbUS-5" value="kenerl&#xa;" style="shape=module;align=left;spacingLeft=20;align=center;verticalAlign=top;" vertex="1" parent="1">
          <mxGeometry x="620" y="-580" width="100" height="50" as="geometry" />
        </mxCell>
      </root>
    </mxGraphModel>
  </diagram>
</mxfile>
